<svg width="506" height="514" viewBox="0 0 506 514" fill="none" xmlns="http://www.w3.org/2000/svg">
<g clip-path="url(#clip0_284_452)">
<path d="M127.772 495.784C110.96 508.312 91.8291 514.473 67.1998 504.225C46.8068 495.736 31.1479 478.284 20.7937 458.782C6.02091 430.913 -9.78362 387.956 7.64749 358.024C22.311 332.847 54.879 327.002 78.4644 313.467C98.821 301.776 131.268 276.489 121.921 249.129C118.716 239.742 111.894 232.077 105.036 224.898C92.1326 211.387 78.4523 198.556 66.7749 183.966C58.1686 173.221 50.5334 161.166 48.1663 147.607C44.2941 125.462 57.8651 107.804 76.9471 98.2958C89.3528 92.1227 104.502 89.0786 116.944 95.191C128.5 100.879 135.261 113.189 139.218 125.426C144.887 142.914 147.4 161.263 158.919 176.253C163.022 181.589 168.242 186.683 174.87 187.823C179.859 188.684 185.005 187.156 189.485 184.779C207.256 175.331 219.127 152.495 223.424 133.503C233.305 89.8669 234.98 47.8684 275.778 20.8962C308.371 -0.630634 351.087 -4.54791 388.449 4.68134C412.278 10.5633 434.977 23.9888 448.087 44.7273C480.133 95.47 432.525 158.959 386.41 181.116C372.608 187.75 358.54 195.245 349.375 207.507C340.21 219.768 337.443 238.117 346.959 250.111C356.088 261.621 373.07 263.61 387.478 260.663C401.887 257.728 415.276 250.9 429.709 248.062C449.009 244.278 470.155 248.329 485.449 260.687C500.744 273.045 509.229 294.014 504.871 313.176C496.896 348.189 465.069 349.183 436.664 343.022C425.29 340.56 411.331 341.082 404.703 350.639C399.241 358.522 401.389 369.91 407.531 377.283C413.674 384.657 422.911 388.72 432.112 391.473C441.313 394.226 450.866 395.96 459.63 399.89C497.078 416.674 506.267 470.085 476.2 498.064C464.037 509.379 446.958 515.237 430.401 513.782C415.506 512.472 401.547 505.547 389.688 496.463C347.069 463.827 320.097 410.914 259.282 410.89C217.44 410.877 188.259 433.508 161.371 462.918C150.605 474.694 139.801 486.87 127.808 495.808L127.772 495.784Z" fill="#E2EDED"/>
<path d="M451.522 290.582C449.592 284.688 448.196 278.624 447.346 272.475C446.897 269.201 446.618 265.78 447.649 262.652C448.123 261.208 449.288 259.644 450.793 259.886C451.449 259.996 451.995 260.444 452.432 260.941C453.804 262.518 454.35 264.653 454.69 266.714C456.013 274.731 454.896 283.135 451.534 290.533L451.51 290.57L451.522 290.582Z" fill="#54878C"/>
<path d="M154.756 486.955C150.702 491.649 146.235 495.99 141.403 499.895C138.83 501.981 136.05 503.983 132.821 504.722C131.34 505.062 129.398 504.88 128.828 503.461C128.585 502.843 128.682 502.139 128.888 501.508C129.532 499.519 131.073 497.955 132.664 496.585C138.842 491.297 146.623 487.901 154.695 486.955H154.744H154.756Z" fill="#54878C"/>
<path d="M455.212 290.776C456.778 289.187 457.797 287.162 458.829 285.197C459.873 283.232 460.99 281.231 462.677 279.788C464.364 278.345 466.78 277.532 468.868 278.272C469.366 278.454 469.875 278.745 470.057 279.242C470.203 279.655 470.106 280.116 469.973 280.54C468.989 283.596 466.549 286.022 463.77 287.635C460.99 289.26 455.212 290.764 455.212 290.764V290.776Z" fill="#54878C"/>
<path d="M176.096 233.327C161.189 228.585 146.101 223.346 130.636 225.735C115.172 228.124 100.581 235.146 88.4303 244.982C85.9298 247.007 83.4656 249.214 81.9483 252.064C80.431 254.902 79.994 258.516 81.5841 261.318C83.9755 265.538 90.0084 266.351 94.5118 264.544C99.0152 262.737 102.426 259.05 105.983 255.739C118.546 244.048 134.375 236.274 150.859 231.483C159.065 229.094 167.902 230.719 176.108 233.339L176.096 233.327Z" fill="#89BFC4"/>
<path d="M185.224 232.83C173.668 217.161 154.052 209.411 140.02 195.901C131.693 187.872 123.535 179.104 119.627 168.225C117.867 163.337 117.029 158.013 118.024 152.92C119.02 147.826 122.006 142.987 126.546 140.464C128.536 139.361 130.964 138.718 133.113 139.47C135.067 140.149 136.475 141.823 137.665 143.521C143.066 151.173 145.931 160.269 149.196 169.05C157.694 191.898 170.755 213.231 185.224 232.854V232.83Z" fill="#54878C"/>
<path d="M154.647 133.588C150.325 120.781 146.538 107.38 147.861 93.9298C149.087 81.3775 154.768 69.553 162.464 59.5597C166.797 53.9445 172.017 48.6689 178.657 46.1706C185.297 43.6723 193.612 44.5697 198.358 49.8453C204.184 56.3337 202.655 66.8121 198.042 74.21C193.417 81.608 186.365 87.1261 180.854 93.8813C172.709 103.887 168.133 116.463 166.324 129.234C164.515 142.004 165.316 155.005 167.028 167.788C167.028 167.788 158.567 145.194 154.659 133.576L154.647 133.588Z" fill="#89BFC4"/>
<path d="M123.499 484.408C110.85 484.772 97.8256 484.505 86.1361 479.654C75.2355 475.13 66.1922 466.835 59.346 457.23C55.4981 451.821 52.1964 445.721 51.7715 439.099C51.3467 432.477 54.4177 425.285 60.4385 422.496C67.8431 419.052 76.8014 423.272 82.1667 429.421C87.532 435.57 90.5424 443.38 95.0944 450.147C101.831 460.153 111.846 467.672 122.783 472.778C133.72 477.883 145.591 480.709 157.499 482.674C157.499 482.674 134.958 484.069 123.487 484.396L123.499 484.408Z" fill="#89BFC4"/>
<path d="M203.347 88.1449C204.864 82.1052 205.641 75.6654 209.149 70.5111C209.829 69.5166 210.63 68.5585 211.735 68.0613C214.041 67.0183 216.882 68.5221 218.096 70.7415C219.309 72.9609 219.249 75.6533 218.897 78.1516C217.064 91.2253 207.535 102.929 195.093 107.38C195.093 107.38 201.781 94.4028 203.347 88.1449Z" fill="#54878C"/>
<path d="M75.8668 268.558C72.2859 270.413 70.7322 274.597 69.4697 278.43C66.9813 285.985 64.4808 293.541 61.9923 301.096C61.4339 302.794 60.8392 304.541 59.6496 305.875C58.4478 307.209 56.4692 307.997 54.8305 307.294C53.5317 306.736 52.7427 305.39 52.3542 304.031C51.2618 300.223 52.6698 296.16 54.3814 292.583C57.6224 285.828 62.053 279.642 67.394 274.391C69.9553 271.869 72.8443 269.504 76.2917 268.485L75.8668 268.558Z" fill="#54878C"/>
<path d="M406.026 363.603C427.572 363.603 424.926 323.545 425.314 302.018C425.363 299.569 425.484 296.755 427.414 295.227C430.315 292.911 434.673 295.494 436.64 298.647C439.444 303.134 440.099 308.628 440.014 313.916C439.796 327.293 435.122 340.548 426.904 351.112C421.745 357.746 414.438 363.616 406.026 363.616V363.603Z" fill="#89BFC4"/>
<path d="M240.467 468.836C232.698 475.81 222.793 480.358 212.451 481.716C201.793 483.111 190.929 481.194 180.235 482.286C177.2 482.589 173.656 483.571 172.685 486.458C171.774 489.138 173.68 491.976 175.902 493.722C181.097 497.809 188.198 498.61 194.789 498.028C202.522 497.336 210.108 494.923 216.821 491.03C226.313 485.512 233.864 477.229 240.783 468.715" fill="#89BFC4"/>
<path d="M243.38 472.111C240.588 480.915 240.37 490.521 242.749 499.447C244.145 504.674 247.289 510.362 252.654 511.114C254.074 504.298 252.29 497.251 250.154 490.63C248.09 484.202 245.686 477.883 242.955 471.698L243.38 472.098V472.111Z" fill="#54878C"/>
<path d="M410.141 370.189C417.036 364.185 426.03 361.335 434.77 359.177C436.652 358.716 438.679 358.316 440.609 358.619C442.151 358.861 443.656 359.601 444.603 360.85C449.494 367.314 438.011 368.794 434.333 369.037C428.385 369.425 422.425 369.607 416.477 370.043C415.421 370.116 410.505 369.861 410.032 370.274C410.068 370.249 410.105 370.213 410.129 370.189H410.141Z" fill="#54878C"/>
<path d="M315.447 171.099C325.947 151.076 329.091 128.13 331.665 105.682C333.315 91.2738 334.881 76.5142 341.266 63.489C343.827 58.2619 347.214 53.3259 351.827 49.7846C356.779 45.9886 362.946 43.9875 369.161 43.4539C386.556 41.9622 404.12 52.5861 411.67 68.3159C419.221 84.0456 416.793 103.838 406.378 117.834C401.365 124.577 394.761 129.974 387.891 134.825C365.604 150.579 315.447 171.099 315.447 171.099Z" fill="#89BFC4"/>
<path d="M362.764 125.971C361.113 125.971 359.559 125.207 358.564 123.885L345.054 106.057C343.294 103.741 343.755 100.442 346.073 98.6837C348.392 96.9252 351.694 97.386 353.454 99.7024L362.339 111.418L384.686 75.5681C386.228 73.1062 389.469 72.3421 391.945 73.8824C394.422 75.4226 395.174 78.6607 393.633 81.1348L367.231 123.473C366.308 124.94 364.73 125.874 362.995 125.947C362.91 125.947 362.837 125.947 362.752 125.947L362.764 125.971Z" fill="white"/>
<path d="M320.279 182.074C329.71 174.058 340.453 167.57 351.949 162.949C356.318 161.19 360.907 159.686 365.617 159.711C369.416 159.723 373.883 161.457 374.539 165.193C375.121 168.467 372.39 171.438 369.452 172.991C362.97 176.435 355.202 175.768 347.858 175.998C338.341 176.314 320.267 182.074 320.267 182.074H320.279Z" fill="#89BFC4"/>
<path d="M382.392 155.733C385.645 150.457 389.372 145.461 393.523 140.84C395.732 138.378 398.16 135.952 401.231 134.715C402.639 134.145 404.594 134.012 405.371 135.322C405.71 135.892 405.723 136.595 405.625 137.25C405.31 139.324 404.035 141.107 402.676 142.708C397.408 148.905 390.27 153.489 382.453 155.709H382.404L382.392 155.733Z" fill="#54878C"/>
<path d="M384.625 158.668C386.847 158.838 389.056 158.304 391.229 157.819C393.402 157.334 395.647 156.897 397.845 157.249C400.042 157.601 402.214 158.911 403.003 160.997C403.186 161.494 403.283 162.076 403.028 162.525C402.809 162.913 402.384 163.119 401.984 163.289C399.01 164.514 395.587 164.223 392.552 163.155C389.517 162.088 384.625 158.656 384.625 158.656V158.668Z" fill="#54878C"/>
<path d="M305.312 157.528C307.46 153.865 307.533 149.293 306.538 145.169C305.542 141.046 303.552 137.238 301.731 133.406C298.866 127.366 296.353 121.084 295.431 114.462C294.933 110.896 295.322 106.494 298.526 104.832C302.144 102.953 306.404 106.082 308.589 109.502C312.947 116.342 313.772 124.831 313.651 132.933C313.517 141.822 312.049 151.427 305.688 157.649L305.312 157.528Z" fill="#54878C"/>
<path d="M320.594 111.83C315.375 104.857 311.296 96.5251 311.587 87.8174C311.66 85.792 311.988 83.706 313.141 82.0324C314.294 80.3588 316.419 79.243 318.373 79.8009C320.376 80.3709 321.578 82.4326 322.185 84.4216C324.952 93.4446 320.594 111.818 320.594 111.818V111.83Z" fill="#89BFC4"/>
<path d="M289.811 362.62C289.811 422.811 240.977 471.601 180.733 471.601C120.489 471.601 71.6548 422.811 71.6548 362.62C71.6548 302.43 120.489 253.64 180.733 253.64C240.977 253.64 289.811 302.43 289.811 362.62Z" fill="#E1A600"/>
<path d="M271.19 362.62C271.19 412.538 230.695 452.997 180.733 452.997C130.77 452.997 90.2754 412.538 90.2754 362.62C90.2754 312.702 130.77 272.244 180.733 272.244C230.695 272.244 271.19 312.702 271.19 362.62Z" fill="white"/>
<path d="M219.455 362.62C219.455 383.99 202.109 401.32 180.721 401.32C159.332 401.32 141.986 383.99 141.986 362.62C141.986 341.251 159.332 323.921 180.721 323.921C202.109 323.921 219.455 341.251 219.455 362.62Z" fill="#E6F3F4"/>
<path d="M287.844 328.578C287.298 326.843 285.441 325.885 283.705 326.443C281.969 326.989 281.01 328.845 281.569 330.579C284.858 340.9 286.521 351.693 286.521 362.633C286.521 420.919 239.059 468.326 180.733 468.326C122.406 468.326 74.9443 420.907 74.9443 362.633C74.9443 304.359 122.406 256.939 180.733 256.939C207.268 256.939 232.638 266.799 252.181 284.687C253.528 285.912 255.604 285.827 256.83 284.481C258.056 283.147 257.971 281.061 256.624 279.836C235.854 260.82 208.907 250.354 180.721 250.354C150.702 250.354 122.479 262.033 101.261 283.232C80.0304 304.443 68.353 332.628 68.353 362.62C68.353 392.612 80.0426 420.81 101.261 442.009C122.491 463.22 150.702 474.887 180.721 474.887C210.74 474.887 238.962 463.208 260.18 442.009C281.411 420.797 293.088 392.612 293.088 362.62C293.088 351.002 291.316 339.553 287.832 328.578H287.844Z" fill="#292E56"/>
<path d="M276.543 317.76C277.102 318.948 278.291 319.652 279.529 319.652C280.003 319.652 280.476 319.555 280.925 319.337C282.576 318.56 283.28 316.608 282.503 314.958C278.461 306.348 273.314 298.258 267.209 290.909C266.043 289.514 263.968 289.32 262.572 290.485C261.176 291.649 260.981 293.723 262.147 295.117C267.901 302.03 272.744 309.646 276.543 317.748V317.76Z" fill="#292E56"/>
<path d="M180.733 306.008C182.553 306.008 184.022 304.541 184.022 302.721V285.415C184.022 283.596 182.553 282.128 180.733 282.128C178.912 282.128 177.443 283.596 177.443 285.415V302.721C177.443 304.541 178.912 306.008 180.733 306.008Z" fill="#95999E"/>
<path d="M177.431 422.52V439.826C177.431 441.645 178.9 443.113 180.72 443.113C182.541 443.113 184.01 441.645 184.01 439.826V422.52C184.01 420.701 182.541 419.233 180.72 419.233C178.9 419.233 177.431 420.701 177.431 422.52Z" fill="#95999E"/>
<path d="M261.285 362.621C261.285 360.801 259.816 359.334 257.995 359.334H240.673C238.853 359.334 237.384 360.801 237.384 362.621C237.384 364.44 238.853 365.907 240.673 365.907H257.995C259.816 365.907 261.285 364.44 261.285 362.621Z" fill="#95999E"/>
<path d="M100.168 362.621C100.168 364.44 101.637 365.907 103.458 365.907H120.78C122.601 365.907 124.069 364.44 124.069 362.621C124.069 360.801 122.601 359.334 120.78 359.334H103.458C101.637 359.334 100.168 360.801 100.168 362.621Z" fill="#95999E"/>
<path d="M245.359 320.186L237.979 324.588C236.413 325.522 235.915 327.535 236.838 329.099C237.457 330.13 238.549 330.7 239.666 330.7C240.236 330.7 240.819 330.555 241.353 330.239L248.733 325.837C250.299 324.903 250.797 322.89 249.874 321.326C248.94 319.761 246.925 319.264 245.359 320.186Z" fill="#95999E"/>
<path d="M120.088 395.002L112.708 399.404C111.142 400.338 110.644 402.351 111.567 403.916C112.186 404.946 113.278 405.516 114.395 405.516C114.965 405.516 115.548 405.371 116.082 405.056L123.462 400.653C125.028 399.719 125.526 397.706 124.603 396.142C123.669 394.577 121.654 394.08 120.088 395.002Z" fill="#95999E"/>
<path d="M214.272 418.687C212.706 419.621 212.208 421.634 213.131 423.199L217.537 430.572C218.156 431.603 219.249 432.173 220.365 432.173C220.936 432.173 221.519 432.028 222.053 431.712C223.619 430.779 224.116 428.765 223.194 427.201L218.787 419.827C217.853 418.263 215.838 417.766 214.272 418.687Z" fill="#95999E"/>
<path d="M143.904 294.669C142.969 293.104 140.954 292.607 139.388 293.529C137.823 294.463 137.325 296.476 138.247 298.04L142.654 305.414C143.273 306.445 144.365 307.015 145.482 307.015C146.053 307.015 146.635 306.869 147.169 306.554C148.735 305.62 149.233 303.607 148.31 302.042L143.904 294.669Z" fill="#95999E"/>
<path d="M220.487 292.619C218.909 291.721 216.894 292.279 215.995 293.856L211.759 301.327C210.861 302.903 211.419 304.916 212.997 305.814C213.507 306.105 214.065 306.238 214.624 306.238C215.777 306.238 216.882 305.644 217.489 304.577L221.725 297.106C222.623 295.529 222.065 293.516 220.487 292.619Z" fill="#95999E"/>
<path d="M143.965 420.676L139.728 428.147C138.83 429.724 139.388 431.737 140.966 432.634C141.476 432.925 142.035 433.059 142.593 433.059C143.734 433.059 144.851 432.465 145.458 431.397L149.694 423.927C150.592 422.35 150.034 420.337 148.456 419.439C146.878 418.542 144.863 419.1 143.965 420.676Z" fill="#95999E"/>
<path d="M242.081 393.619C240.503 392.722 238.488 393.28 237.59 394.856C236.692 396.433 237.25 398.446 238.828 399.344L246.306 403.576C246.816 403.867 247.374 404.001 247.932 404.001C249.085 404.001 250.19 403.406 250.797 402.339C251.695 400.763 251.137 398.749 249.559 397.852L242.081 393.619Z" fill="#95999E"/>
<path d="M122.625 325.898L115.148 321.665C113.57 320.767 111.555 321.325 110.656 322.902C109.758 324.479 110.316 326.492 111.894 327.389L119.372 331.622C119.882 331.913 120.44 332.046 120.998 332.046C122.139 332.046 123.256 331.452 123.863 330.385C124.761 328.808 124.203 326.795 122.625 325.898Z" fill="#95999E"/>
<path d="M165.268 359.467L101.443 376.834C98.6268 377.598 96.7575 380.436 97.4494 383.274C98.1534 386.209 101.14 387.955 104.041 387.167L168.084 369.739C170.925 368.963 172.6 366.041 171.823 363.203C171.046 360.365 168.121 358.691 165.28 359.467H165.268Z" fill="#53575B"/>
<path d="M158.592 307.936L171.41 354.968C172.187 357.806 175.112 359.479 177.953 358.703C180.793 357.927 182.468 355.004 181.692 352.166L168.812 304.917C168.023 302.03 165.001 300.344 162.112 301.218C159.32 302.066 157.815 305.111 158.58 307.924L158.592 307.936Z" fill="#53575B"/>
<path d="M103.798 381.71L106.833 392.819C107.537 395.39 105.194 397.743 102.608 397.064L91.465 394.129L80.3217 391.194C77.7483 390.515 76.8744 387.313 78.7437 385.421L86.8645 377.247L94.9852 369.073C96.8546 367.181 100.083 368.03 100.775 370.601L103.81 381.71H103.798Z" fill="#53575B"/>
<path d="M164.406 308.979L153.287 312.011C150.714 312.715 148.359 310.374 149.039 307.791L151.976 296.658L154.914 285.524C155.594 282.953 158.798 282.08 160.692 283.948L168.873 292.061L177.055 300.175C178.948 302.042 178.099 305.268 175.525 305.96L164.406 308.992V308.979Z" fill="#53575B"/>
<path d="M174.287 345.217C183.197 342.792 192.386 348.043 194.814 356.945C197.241 365.847 191.985 375.027 183.076 377.453C174.166 379.878 164.977 374.627 162.561 365.725C160.134 356.824 165.39 347.643 174.299 345.217H174.287Z" fill="#54878C"/>
<path d="M176.812 354.471C180.611 353.44 184.52 355.671 185.552 359.467C186.584 363.263 184.35 367.168 180.551 368.199C176.763 369.23 172.843 366.999 171.811 363.203C170.779 359.407 173.012 355.502 176.812 354.471Z" fill="#E1A600"/>
<g style="mix-blend-mode:multiply">
<path d="M178.572 248.935C240.346 248.935 290.418 298.962 290.418 360.68C290.418 422.398 240.346 472.425 178.572 472.425V248.935Z" fill="#E6E6E6"/>
</g>
<path d="M309.269 494.862C309.269 497.579 311.49 499.798 314.209 499.798H342.966C345.685 499.798 347.906 497.579 347.906 494.862V479.205C347.906 476.489 350.006 473.541 352.58 472.668L359.948 469.648C362.4 468.46 365.981 469.054 367.911 470.97L379.115 482.079C381.045 483.996 384.201 483.996 386.131 482.079L406.439 461.935C408.369 460.019 408.369 456.89 406.439 454.974L395.235 443.865C393.305 441.949 392.71 438.395 393.912 435.957L396.934 428.693C397.833 426.122 400.782 424.024 403.501 424.024H419.379C422.098 424.024 424.319 421.804 424.319 419.088V390.648C424.319 387.931 422.098 385.712 419.379 385.712H403.501C400.782 385.712 397.821 383.614 396.934 381.043L393.912 373.778C392.71 371.341 393.305 367.787 395.235 365.871L406.439 354.774C408.369 352.858 408.369 349.729 406.439 347.813L386.131 327.668C384.201 325.752 381.045 325.752 379.115 327.668L367.911 338.777C365.981 340.694 362.4 341.288 359.948 340.099L352.58 337.08C350.006 336.194 347.906 333.259 347.906 330.543V314.886C347.906 312.169 345.685 309.95 342.966 309.95H314.209C311.49 309.95 309.269 312.169 309.269 314.886V330.543C309.269 333.259 307.169 336.206 304.596 337.08L297.228 340.099C294.775 341.288 291.195 340.694 289.265 338.777L278.061 327.668C276.131 325.752 272.974 325.752 271.044 327.668L250.736 347.801C248.806 349.717 248.806 352.846 250.736 354.762L261.94 365.871C263.87 367.787 264.465 371.341 263.264 373.778L260.241 381.043C259.355 383.614 256.393 385.712 253.674 385.712H237.797C235.078 385.712 232.856 387.931 232.856 390.648V419.088C232.856 421.804 235.078 424.024 237.797 424.024H253.674C256.393 424.024 259.355 426.122 260.241 428.693L263.264 435.957C264.465 438.395 263.87 441.949 261.94 443.865L250.736 454.974C248.806 456.89 248.806 460.019 250.736 461.935L271.044 482.079C272.974 483.996 276.131 483.996 278.061 482.079L289.265 470.97C291.195 469.054 294.775 468.46 297.228 469.648L304.596 472.668C307.169 473.554 309.269 476.489 309.269 479.205V494.862Z" fill="#39487F"/>
<g style="mix-blend-mode:multiply">
<path d="M388.437 339.141C390.367 341.058 390.367 344.187 388.437 346.103L377.233 357.2C375.303 359.116 374.708 362.669 375.91 365.107L378.932 372.372C379.831 374.943 382.78 377.041 385.499 377.041H395.016L393.936 374.433C392.734 371.996 393.329 368.442 395.259 366.526L406.463 355.429C408.393 353.513 408.393 350.384 406.463 348.468L386.155 328.323C384.225 326.407 381.069 326.407 379.139 328.323L378.338 329.112L388.449 339.129L388.437 339.141Z" fill="#CCCCCC"/>
<path d="M286.57 463.997L279.201 460.977C276.762 459.789 273.181 460.383 271.239 462.299L260.836 472.608L271.044 482.722C272.974 484.638 276.13 484.638 278.06 482.722L289.264 471.613C289.811 471.079 290.49 470.655 291.231 470.34C291.134 467.684 289.082 464.858 286.57 463.997Z" fill="#CCCCCC"/>
<path d="M419.403 386.367H406.329V410.429C406.329 413.145 404.108 415.364 401.389 415.364H385.512C382.793 415.364 379.831 417.463 378.945 420.034L375.922 427.298C374.72 429.736 375.315 433.289 377.245 435.206L388.449 446.315C390.379 448.231 390.379 451.36 388.449 453.276L368.942 472.62L379.139 482.734C381.069 484.651 384.225 484.651 386.155 482.734L406.463 462.59C408.393 460.674 408.393 457.545 406.463 455.629L395.259 444.52C393.329 442.604 392.734 439.05 393.936 436.612L396.958 429.348C397.857 426.777 400.806 424.679 403.525 424.679H419.403C422.122 424.679 424.343 422.459 424.343 419.743V391.303C424.343 388.586 422.122 386.367 419.403 386.367Z" fill="#CCCCCC"/>
<path d="M349.909 462.299C347.979 460.383 344.398 459.789 341.946 460.977L334.578 463.997C332.005 464.882 329.905 467.817 329.905 470.534V486.191C329.905 488.907 327.683 491.127 324.964 491.127H309.281V495.505C309.281 498.221 311.503 500.441 314.222 500.441H342.978C345.697 500.441 347.919 498.221 347.919 495.505V479.848C347.919 477.131 350.019 474.184 352.592 473.311L358.552 470.873L349.897 462.287L349.909 462.299Z" fill="#CCCCCC"/>
</g>
<path d="M320.182 447.588C345.637 447.588 366.272 427.128 366.272 401.89C366.272 376.652 345.637 356.193 320.182 356.193C294.727 356.193 274.091 376.652 274.091 401.89C274.091 427.128 294.727 447.588 320.182 447.588Z" fill="#DCE8FA"/>
<path d="M320.182 454.998C290.685 454.998 266.675 431.179 266.675 401.891C266.675 372.602 290.673 348.783 320.182 348.783C349.691 348.783 373.689 372.602 373.689 401.891C373.689 431.179 349.691 454.998 320.182 454.998ZM320.182 363.603C298.866 363.603 281.52 380.776 281.52 401.891C281.52 423.005 298.866 440.178 320.182 440.178C341.497 440.178 358.843 423.005 358.843 401.891C358.843 380.776 341.497 363.603 320.182 363.603Z" fill="#292E56"/>
<path d="M328.594 424.181C339.354 424.181 348.076 415.532 348.076 404.862C348.076 394.192 339.354 385.542 328.594 385.542C317.834 385.542 309.111 394.192 309.111 404.862C309.111 415.532 317.834 424.181 328.594 424.181Z" fill="#DCE8FA"/>
<path d="M320.181 428.62C305.348 428.62 293.282 416.626 293.282 401.891C293.282 387.155 305.348 375.161 320.181 375.161C335.015 375.161 347.081 387.155 347.081 401.891C347.081 416.626 335.015 428.62 320.181 428.62ZM320.181 389.981C313.529 389.981 308.116 395.317 308.116 401.891C308.116 408.464 313.529 413.8 320.181 413.8C326.833 413.8 332.247 408.464 332.247 401.891C332.247 395.317 326.833 389.981 320.181 389.981Z" fill="#292E56"/>
<path d="M402.482 339.748C411.428 347.764 419.901 356.314 427.815 365.337C428.058 365.616 428.325 365.944 428.325 366.307C428.325 366.865 427.779 367.241 427.269 367.472C422.947 369.424 417.934 367.629 413.564 365.762C403.526 361.468 393.657 356.811 383.958 351.803C383.133 351.378 382.283 350.929 381.737 350.19C381.069 349.304 380.936 348.128 380.923 347.024C380.851 343.083 381.919 339.117 383.982 335.758C390.173 334.812 396.704 336.17 401.996 339.529L402.482 339.748Z" fill="#E1A600"/>
<path d="M402.652 340.245C410.603 311.053 413.261 279.606 416.915 249.565C418.48 236.649 419.646 223.588 418.456 210.623C417.849 203.965 416.611 197.367 414.778 190.94C413.637 186.925 412.096 182.766 408.818 180.182C403.477 175.986 395.769 177.526 389.214 179.321C367.389 185.288 345.697 191.728 324.151 198.641C297.349 207.239 269.843 217.124 249.729 236.807C246.124 240.336 245.893 250.427 245.893 250.427C262.062 268.509 287.832 277.459 311.745 273.3C326.943 270.656 340.951 263.149 353.162 253.737C365.386 244.338 375.983 233.035 386.532 221.805L386.24 222.654C377.367 259.401 374.842 298.744 384.116 335.394L402.664 340.269L402.652 340.245Z" fill="#3D666B"/>
<g style="mix-blend-mode:multiply">
<path d="M408.588 180.34C403.247 176.144 395.538 177.684 388.984 179.479C367.158 185.446 345.467 191.886 323.92 198.799C297.118 207.397 269.612 217.281 249.498 236.965C246.67 239.73 245.917 246.534 245.723 249.335C264.514 235.061 287.699 226.85 310.374 219.573C331.92 212.661 353.612 206.221 375.437 200.254C382.004 198.459 389.7 196.919 395.041 201.115C398.318 203.686 399.86 207.858 401.001 211.872C402.834 218.3 404.072 224.898 404.679 231.556C405.868 244.52 404.703 257.57 403.137 270.498C400.43 292.789 398.258 315.856 394.07 338.208L402.421 340.403C410.372 311.211 413.03 279.764 416.684 249.723C418.25 236.807 419.415 223.745 418.226 210.781C417.619 204.123 416.381 197.525 414.548 191.097C413.407 187.083 411.865 182.923 408.588 180.34Z" fill="#E6E6E6"/>
</g>
<g style="mix-blend-mode:multiply">
<path d="M261.552 241.621C267.366 248.171 271.494 257.873 266.723 266.18C266.444 266.665 267.184 267.09 267.464 266.617C272.44 257.958 268.24 247.867 262.159 241.015C261.795 240.603 261.188 241.209 261.552 241.621Z" fill="#CCCCCC"/>
</g>
<g style="mix-blend-mode:multiply">
<path d="M386.884 222.157C390.586 219.683 392.285 215.474 393.548 211.387C393.706 210.854 392.88 210.635 392.722 211.157C391.533 215.013 389.943 219.076 386.447 221.417C385.985 221.72 386.422 222.46 386.884 222.157Z" fill="#CCCCCC"/>
</g>
<g style="mix-blend-mode:multiply">
<path d="M386.908 221.611C387.988 218.142 388.365 214.492 388.001 210.878C387.952 210.332 387.09 210.332 387.139 210.878C387.491 214.419 387.139 217.984 386.07 221.38C385.901 221.914 386.738 222.132 386.896 221.611H386.908Z" fill="#CCCCCC"/>
</g>
<g style="mix-blend-mode:multiply">
<path d="M386.665 221.259C385.779 217.936 383.91 214.904 381.324 212.624C380.912 212.261 380.305 212.867 380.717 213.231C383.194 215.414 384.99 218.288 385.84 221.49C385.986 222.023 386.811 221.793 386.665 221.259Z" fill="#CCCCCC"/>
</g>
<path d="M270.389 265.731C270.389 265.731 271.299 266.192 273.023 266.823" stroke="#6FA7AA" stroke-width="0.94" stroke-linecap="round" stroke-linejoin="round"/>
<path d="M278.728 268.533C295.273 272.511 334.615 274.464 380.608 224.449" stroke="#6FA7AA" stroke-width="0.94" stroke-linecap="round" stroke-linejoin="round"/>
<path d="M382.623 222.241C383.254 221.538 383.885 220.822 384.517 220.095" stroke="#6FA7AA" stroke-width="0.94" stroke-linecap="round" stroke-linejoin="round"/>
<path d="M388.352 222.884C388.352 222.884 388.207 223.891 387.952 225.71" stroke="#6FA7AA" stroke-width="0.94" stroke-linecap="round" stroke-linejoin="round"/>
<path d="M387.211 231.204C384.614 251.251 378.872 302.455 384.419 327.85" stroke="#6FA7AA" stroke-width="0.94" stroke-linecap="round" stroke-linejoin="round"/>
<path d="M385.087 330.543C385.354 331.501 385.633 332.41 385.937 333.271" stroke="#6FA7AA" stroke-width="0.94" stroke-linecap="round" stroke-linejoin="round"/>
<g style="mix-blend-mode:multiply">
<path d="M408.357 345.424C405.213 346.636 402.761 349.389 402.008 352.688C401.887 353.222 402.712 353.452 402.834 352.919C403.513 349.935 405.698 347.352 408.575 346.248C409.085 346.054 408.867 345.217 408.345 345.424H408.357Z" fill="#CCCCCC"/>
</g>
<g style="mix-blend-mode:multiply">
<path d="M412.217 349.025C409.85 350.796 408.053 353.185 406.997 355.938C406.803 356.46 407.628 356.678 407.823 356.169C408.782 353.634 410.481 351.39 412.642 349.765C413.079 349.438 412.642 348.698 412.205 349.025H412.217Z" fill="#CCCCCC"/>
</g>
<g style="mix-blend-mode:multiply">
<path d="M415.737 353.671C414.414 355.866 413.14 358.097 411.901 360.341C411.634 360.826 412.375 361.263 412.642 360.777C413.88 358.534 415.155 356.302 416.478 354.107C416.769 353.634 416.016 353.198 415.737 353.671Z" fill="#CCCCCC"/>
</g>
<g style="mix-blend-mode:multiply">
<path d="M383.072 337.88C386.981 339.481 390.853 341.227 394.847 342.585C398.5 343.835 402.288 344.599 406.16 344.017C406.706 343.932 406.476 343.107 405.929 343.192C401.936 343.786 398.003 342.816 394.264 341.47C390.525 340.124 386.944 338.547 383.303 337.043C382.793 336.837 382.575 337.662 383.072 337.868V337.88Z" fill="#CCCCCC"/>
</g>
<g style="mix-blend-mode:multiply">
<path d="M381.98 342.634C385.221 345.011 387.224 348.88 387.333 352.882C387.345 353.428 388.207 353.44 388.195 352.882C388.073 348.552 385.9 344.453 382.417 341.894C381.967 341.567 381.543 342.307 381.98 342.634Z" fill="#CCCCCC"/>
</g>
<path d="M292.542 413.254C295.735 425.588 298.174 438.104 299.85 450.729C299.898 451.129 299.947 451.554 299.728 451.893C299.4 452.378 298.696 452.403 298.114 452.306C293.149 451.493 289.774 446.957 287.019 442.749C280.683 433.071 274.71 423.163 269.102 413.036C268.629 412.175 268.143 411.277 268.095 410.295C268.034 409.119 268.605 408.003 269.236 407.02C271.481 403.491 274.759 400.629 278.558 398.871C284.591 401.672 289.544 406.705 292.239 412.781L292.53 413.254H292.542Z" fill="#E1A600"/>
<path d="M292.396 413.8C316.589 392.685 337.443 366.489 358.333 342.112C367.316 331.622 376.032 320.78 382.611 308.64C385.985 302.406 388.777 295.845 390.938 289.102C392.285 284.894 393.39 280.309 392.006 276.101C389.76 269.249 382.052 266.095 375.206 263.828C352.434 256.272 329.492 249.226 306.404 242.665C277.684 234.515 247.58 227.092 218.241 232.647C212.985 233.641 206.843 242.41 206.843 242.41C210.472 267.866 227.964 290.909 251.525 301.278C266.492 307.864 283.28 309.464 299.607 308.337C315.921 307.209 331.932 303.473 347.87 299.738L347.117 300.32C317.669 327.547 292.275 360.801 278.91 398.604L292.421 413.8H292.396Z" fill="#54878C"/>
<g style="mix-blend-mode:multiply">
<path d="M391.727 276.101C389.481 269.249 381.773 266.095 374.927 263.828C352.155 256.272 329.213 249.226 306.125 242.665C277.405 234.515 247.301 227.092 217.962 232.647C213.835 233.423 209.174 238.99 207.353 241.355C232.334 239.79 257.631 246.157 281.945 253.058C305.033 259.607 327.975 266.665 350.747 274.221C357.593 276.489 365.301 279.654 367.547 286.494C368.93 290.691 367.826 295.275 366.478 299.495C364.318 306.251 361.526 312.8 358.151 319.033C351.584 331.173 342.869 342.015 333.874 352.506C318.373 370.601 302.884 389.69 286.036 406.96L292.117 413.8C316.309 392.685 337.164 366.489 358.054 342.112C367.037 331.622 375.752 320.78 382.332 308.64C385.706 302.406 388.498 295.845 390.659 289.102C392.006 284.894 393.111 280.309 391.727 276.101Z" fill="#E6E6E6"/>
</g>
<g style="mix-blend-mode:multiply">
<path d="M225.864 243.889C227.139 253.094 225.039 264.094 215.935 268.594C215.413 268.848 215.874 269.637 216.396 269.382C225.889 264.688 228.074 253.24 226.738 243.659C226.653 243.077 225.779 243.331 225.864 243.901V243.889Z" fill="#CCCCCC"/>
</g>
<g style="mix-blend-mode:multiply">
<path d="M347.979 300.272C352.701 300.26 356.683 297.519 360.203 294.657C360.652 294.293 360.009 293.65 359.56 294.014C356.234 296.718 352.446 299.35 347.979 299.362C347.397 299.362 347.397 300.272 347.979 300.272Z" fill="#CCCCCC"/>
</g>
<g style="mix-blend-mode:multiply">
<path d="M348.319 299.786C351.305 297.373 353.794 294.353 355.59 290.957C355.87 290.436 355.081 289.975 354.801 290.496C353.029 293.831 350.614 296.766 347.676 299.143C347.215 299.507 347.87 300.15 348.319 299.786Z" fill="#CCCCCC"/>
</g>
<g style="mix-blend-mode:multiply">
<path d="M348.307 299.338C349.472 295.869 349.594 292.11 348.659 288.568C348.513 287.998 347.627 288.241 347.785 288.811C348.683 292.207 348.562 295.772 347.433 299.095C347.251 299.653 348.125 299.896 348.307 299.338Z" fill="#CCCCCC"/>
</g>
<path d="M219.455 270.328C219.455 270.328 219.989 271.274 221.142 272.839" stroke="#6FA7AA" stroke-linecap="round" stroke-linejoin="round"/>
<path d="M225.185 277.702C237.457 290.921 271.032 315.759 341.072 298.622" stroke="#6FA7AA" stroke-linecap="round" stroke-linejoin="round"/>
<path d="M344.144 297.846C345.115 297.591 346.098 297.337 347.081 297.07" stroke="#6FA7AA" stroke-linecap="round" stroke-linejoin="round"/>
<path d="M348.829 301.775C348.829 301.775 348.101 302.576 346.814 304.031" stroke="#6FA7AA" stroke-linecap="round" stroke-linejoin="round"/>
<path d="M342.929 308.458C328.836 324.624 293.647 366.465 283.596 392.152" stroke="#6FA7AA" stroke-linecap="round" stroke-linejoin="round"/>
<path d="M282.588 394.905C282.261 395.899 281.969 396.869 281.727 397.815" stroke="#6FA7AA" stroke-linecap="round" stroke-linejoin="round"/>
<g style="mix-blend-mode:multiply">
<path d="M294.363 421.719C290.855 420.943 287.104 421.974 284.482 424.436C284.057 424.836 284.701 425.479 285.125 425.079C287.492 422.835 290.928 421.889 294.12 422.592C294.691 422.714 294.933 421.841 294.363 421.719Z" fill="#CCCCCC"/>
</g>
<g style="mix-blend-mode:multiply">
<path d="M295.65 427.165C292.566 427.334 289.58 428.365 287.068 430.16C286.594 430.5 287.043 431.288 287.529 430.948C289.908 429.251 292.724 428.244 295.65 428.086C296.232 428.05 296.232 427.14 295.65 427.177V427.165Z" fill="#CCCCCC"/>
</g>
<g style="mix-blend-mode:multiply">
<path d="M296.013 433.35C293.549 434.514 291.122 435.727 288.706 436.988C288.184 437.255 288.645 438.043 289.167 437.776C291.583 436.515 294.011 435.302 296.475 434.138C297.009 433.883 296.548 433.107 296.013 433.35Z" fill="#CCCCCC"/>
</g>
<g style="mix-blend-mode:multiply">
<path d="M276.458 400.132C279.019 403.916 281.459 407.821 284.263 411.435C286.691 414.576 289.544 417.45 293.185 419.148C293.707 419.391 294.181 418.615 293.647 418.36C289.981 416.662 287.152 413.751 284.737 410.574C282.066 407.069 279.711 403.321 277.247 399.671C276.92 399.186 276.13 399.647 276.458 400.132Z" fill="#CCCCCC"/>
</g>
<g style="mix-blend-mode:multiply">
<path d="M272.707 403.685C274.176 407.748 273.703 412.32 271.421 415.983C271.105 416.48 271.894 416.941 272.21 416.444C274.613 412.587 275.135 407.724 273.594 403.443C273.399 402.897 272.513 403.127 272.72 403.685H272.707Z" fill="#CCCCCC"/>
</g>
<path d="M283.584 181.965C283.316 173.597 282.637 165.313 282.188 156.97C281.738 148.565 282.819 133.563 273.351 129.585C265.618 126.335 254.985 130.968 250.069 137.153C244.861 143.702 243.162 152.47 243.684 160.814C244.218 169.146 246.767 177.211 249.304 185.179C250.032 187.459 250.761 189.739 251.489 192.031C251.671 192.613 251.889 193.232 252.387 193.583C253.152 194.129 254.22 193.814 255.094 193.486C264.465 189.933 273.848 186.379 283.219 182.826L283.584 181.977V181.965Z" fill="#E1A600"/>
<path d="M256.478 187.617C258.966 193.535 262.001 199.223 265.533 204.571C277.344 222.448 294.569 236.298 313.445 246.436C332.32 256.587 352.883 263.221 373.604 268.727L374.162 268.788C374.769 269.067 375.498 269.03 376.08 268.691C374.951 266.217 373.822 263.755 372.681 261.281C372.244 260.323 371.795 259.352 371.188 258.479C368.603 254.78 363.723 253.628 359.256 252.888C356.84 252.488 353.976 252.282 352.349 254.113L351.742 254.283C330.852 232.247 305.275 214.746 286.206 191.109C283.414 187.653 280.719 183.954 279.566 179.673L256.466 187.604L256.478 187.617Z" fill="#D3A484"/>
<path d="M251.513 192.916C258.529 184.657 268.459 178.897 279.153 176.871C281.751 176.374 285.149 176.52 286.133 178.945C286.715 180.4 286.072 182.11 284.955 183.214C283.838 184.318 282.345 184.96 280.889 185.567C273.181 188.793 265.485 192.007 257.777 195.233C256.696 195.681 255.567 196.142 254.402 196.021C251.756 195.754 251.501 192.904 251.501 192.904L251.513 192.916Z" fill="#CC9305"/>
<g style="mix-blend-mode:multiply" opacity="0.2">
<path d="M287.529 211.169C282.443 210.781 277.708 212.733 274.407 216.117C281.629 224.437 290.09 231.665 299.267 237.886C301.233 235.4 302.508 232.32 302.763 228.924C303.467 219.816 296.645 211.86 287.529 211.169Z" fill="#6D432C"/>
</g>
<path d="M275.305 193.62C276.203 187.956 276.847 182.244 277.211 176.507C278.085 162.973 278.922 145.703 272.744 133.09C271.02 129.573 268.41 126.383 264.599 125.073L227.649 112.473C216.772 113.855 207.571 121.896 202.412 131.562C197.253 141.228 195.603 152.373 194.959 163.312C193.381 190.333 197.545 217.681 207.098 243.004C225.585 243.307 244.473 243.562 262.037 237.813L263.518 237.486C265.412 235.594 265.594 232.344 266.383 229.93C270.267 218.081 273.363 205.929 275.305 193.608V193.62Z" fill="#E1A600"/>
<g style="mix-blend-mode:multiply">
<path d="M220.147 133.612C222.296 129.573 225.16 125.838 228.547 122.745C227.066 121.169 225.913 119.253 224.845 117.324C221.81 118.343 218.666 118.937 215.389 119.204C214.6 119.265 213.835 119.119 213.131 118.828C208.761 122.236 205.107 126.687 202.497 131.587C197.338 141.252 195.688 152.398 195.044 163.337C193.466 190.358 197.63 217.706 207.183 243.029C212.815 243.126 218.484 243.211 224.141 243.126C215.097 218.337 211.164 191.704 212.706 165.375C213.349 154.435 215 143.29 220.159 133.624L220.147 133.612Z" fill="#E6E6E6"/>
</g>
<path d="M244.485 76.0047C245.468 76.0047 245.468 74.4766 244.485 74.4766C243.502 74.4766 243.502 76.0047 244.485 76.0047Z" fill="#1D262D"/>
<path d="M291.219 84.1422C291.486 87.8533 294.702 90.6912 295.661 94.2811C296.839 98.7441 294.278 103.413 290.903 106.554C284.47 112.558 274.868 114.777 266.31 112.727C257.752 110.678 250.36 104.578 246.233 96.8037C244.873 94.2326 243.841 91.5038 242.943 88.7387C242.081 86.1069 241.341 83.4267 240.928 80.6858C240.115 75.2041 240.673 69.5404 242.543 64.3254C243.441 61.8392 244.655 59.4016 246.573 57.5581C247.969 56.2119 249.68 55.2417 251.465 54.4898C257.995 51.7368 265.533 51.9308 272.258 54.1623C278.983 56.3939 284.943 60.5294 290.09 65.3927C292.032 67.224 293.962 69.3706 294.265 72.0145C294.702 75.8347 291.644 79.2426 291.425 83.075L291.219 84.1301V84.1422Z" fill="#E4B58C"/>
<g style="mix-blend-mode:multiply">
<path d="M266.201 84.3848C266.08 86.0463 266.905 87.4653 268.046 87.5502C269.187 87.635 270.207 86.3616 270.316 84.7001C270.437 83.0386 269.612 81.6197 268.471 81.5348C267.33 81.4499 266.31 82.7233 266.201 84.3848Z" fill="#332214"/>
</g>
<g style="mix-blend-mode:multiply">
<path d="M282.236 86.4829C282.115 88.1445 282.94 89.5634 284.081 89.6483C285.222 89.7332 286.242 88.4598 286.351 86.7983C286.472 85.1368 285.647 83.7178 284.506 83.6329C283.365 83.548 282.345 84.8214 282.236 86.4829Z" fill="#332214"/>
</g>
<g style="mix-blend-mode:multiply" opacity="0.2">
<path d="M268.204 92.8988C268.58 95.2273 266.662 97.4709 263.919 97.9075C261.176 98.3441 258.639 96.8039 258.25 94.4754C257.874 92.1468 259.792 89.9032 262.535 89.4666C265.279 89.03 267.816 90.5702 268.204 92.8988Z" fill="#6D432C"/>
</g>
<g style="mix-blend-mode:multiply" opacity="0.2">
<path d="M292.846 94.3905C293.222 96.719 291.304 98.9626 288.561 99.3992C285.817 99.8358 283.28 98.2956 282.892 95.9671C282.516 93.6385 284.433 91.3949 287.177 90.9583C289.92 90.5217 292.457 92.0619 292.846 94.3905Z" fill="#6D432C"/>
</g>
<g style="mix-blend-mode:multiply" opacity="0.2">
<path d="M271.408 103.389C271.724 104.905 273.156 105.973 274.71 105.851C276.142 105.742 277.271 104.808 278.06 103.668C278.558 102.941 279.651 103.765 279.153 104.505C277.975 106.227 275.997 107.501 273.836 107.197C271.906 106.919 270.437 105.475 270.049 103.596C269.867 102.722 271.238 102.528 271.408 103.389Z" fill="#6D432C"/>
</g>
<g style="mix-blend-mode:multiply" opacity="0.2">
<path d="M276.033 97.9683C276.737 97.9683 277.514 97.8834 278.218 97.5074C279.529 96.7919 280.233 95.2759 280.306 92.9959C280.427 89.115 279.359 85.1613 277.296 81.8626C277.089 81.5351 276.652 81.4259 276.312 81.6321C275.985 81.8383 275.875 82.2749 276.082 82.6145C278 85.6707 278.995 89.3454 278.874 92.9474C278.837 94.1359 278.57 95.6882 277.514 96.2582C276.932 96.5736 276.179 96.5736 275.269 96.525C274.686 96.5008 274.127 96.4523 273.836 96.1612C273.557 95.8823 273.108 95.8944 272.829 96.1612C272.549 96.4402 272.562 96.8889 272.829 97.1678C273.533 97.8591 274.528 97.9076 275.184 97.9319C275.438 97.944 275.718 97.9561 275.997 97.9561L276.033 97.9683Z" fill="#6D432C"/>
</g>
<path d="M269.175 76.2836C267.548 76.1866 265.995 76.5504 264.538 77.2296C263.348 77.7875 262.657 75.8713 263.834 75.3134C265.643 74.4644 267.548 74.1612 269.527 74.2704C270.826 74.3432 270.462 76.3442 269.163 76.2715L269.175 76.2836Z" fill="#292E56"/>
<path d="M284.664 77.7148C283.28 76.8659 281.738 76.4535 280.124 76.3687C278.813 76.2959 279.104 74.2827 280.415 74.3554C282.406 74.4646 284.239 75.0831 285.926 76.1261C287.043 76.8053 285.768 78.394 284.664 77.727V77.7148Z" fill="#292E56"/>
<path d="M316.2 251.809L371.31 267.284L423.47 286.858L368.19 276.998L316.2 251.809Z" fill="#1B1F3A"/>
<path d="M370.691 278.054L397.857 219.44L448.876 230.488L423.47 286.858L370.691 278.054Z" fill="#292E56"/>
<g style="mix-blend-mode:multiply">
<path d="M441.641 228.924L419.865 277.241L374.575 269.685L370.691 278.054L423.47 286.858L448.876 230.488L441.641 228.924Z" fill="#CCCCCC"/>
</g>
<path d="M397.857 219.44L393.621 218.591L367.365 274.791L370.691 278.053L397.857 219.44Z" fill="#373F6B"/>
<path d="M422.365 254.756C423.263 260.286 419.5 265.501 413.965 266.386C408.43 267.284 403.21 263.524 402.324 257.994C401.426 252.464 405.189 247.249 410.724 246.363C416.259 245.478 421.479 249.226 422.365 254.756Z" fill="#E1A600"/>
<path d="M417.551 260.135C419.608 257.266 418.947 253.273 416.075 251.218C413.202 249.163 409.206 249.823 407.149 252.693C405.092 255.562 405.753 259.555 408.625 261.61C411.497 263.665 415.494 263.005 417.551 260.135Z" fill="#F1D234"/>
<path d="M370.691 278.053L314.489 254.404L316.2 251.809L372.135 274.961L370.691 278.053Z" fill="#292E56"/>
<path d="M240.394 79.4974C243.101 81.8987 246.524 83.257 250.53 82.7598C254.147 82.3111 257.497 80.0917 259.343 76.9506C260.144 75.5802 260.666 74.0642 261.163 72.5603C262.474 68.5946 263.688 64.4226 263.033 60.2991L263.603 60.6023C267.961 65.6596 272.343 70.7412 277.575 74.8889C282.807 79.0366 288.985 82.2141 295.625 82.8811C298.223 83.1479 301.015 82.966 303.151 81.4621C305.287 79.9583 306.392 76.7929 304.923 74.6342L305.384 75.0102C312.838 77.3144 321.662 73.7489 325.413 66.9209C326.457 65.0169 327.137 62.9187 327.659 60.8085C328.581 57.0368 329.031 53.0225 327.975 49.2871C326.918 45.5518 324.102 42.1317 320.327 41.1979C318.118 40.6521 315.775 40.9675 313.566 41.5253C309.245 42.6047 304.838 44.8362 302.908 48.8626L302.847 48.3411C304.996 46.4007 306.283 43.5264 306.307 40.6279C306.331 37.7293 305.081 34.8429 302.945 32.8782C302.071 32.0657 301.051 31.4107 299.898 31.0833C298.696 30.7437 297.422 30.7801 296.183 30.9378C290.539 31.6776 285.295 35.0855 282.333 39.9366L281.993 39.8396C278.352 35.9587 273.023 34.0061 267.718 33.5452C260.022 32.8782 251.707 35.5221 247.131 41.7315L246.84 41.8892C245.262 38.9421 243.562 35.8616 240.734 34.0546C240.2 33.715 239.399 33.4482 238.986 33.9455C238.707 34.2729 238.792 34.7701 238.901 35.1946C239.678 38.2751 241.037 41.1979 242.895 43.769L242.749 43.7083C241.159 42.4107 239.581 41.113 237.991 39.8153C237.626 39.5242 237.177 39.2089 236.74 39.3787C236.4 39.5121 236.231 39.8881 236.146 40.2398C235.818 41.6587 236.485 43.1626 237.493 44.2177C238.5 45.2728 239.836 45.952 241.135 46.619L240.855 47.0799C237.032 49.5418 234.458 53.7016 233.524 58.1404C232.103 64.8349 234.701 74.4765 240.394 79.5217V79.4974Z" fill="#292E56"/>
<path d="M235.539 80.1887C236.219 84.3243 239.897 87.1743 243.769 86.5679C247.641 85.9494 250.239 82.1049 249.559 77.9693C248.879 73.8338 245.201 70.9837 241.329 71.5901C237.457 72.2086 234.859 76.0531 235.539 80.1887Z" fill="#E4B58C"/>
<g style="mix-blend-mode:multiply" opacity="0.5">
<path d="M246.706 78.6606C244.412 76.3806 241.195 75.6044 238.088 76.5867C237.578 76.7444 237.906 77.5084 238.416 77.3387C239.496 76.9991 240.613 76.9142 241.681 77.0476C241.657 77.084 241.62 77.1082 241.596 77.1567C240.88 78.6485 241.936 80.6738 242.943 81.7896C243.308 82.1776 243.963 81.6804 243.599 81.2802C242.786 80.3948 241.778 78.697 242.361 77.4721C242.409 77.3629 242.409 77.2538 242.373 77.1689C243.732 77.4721 244.995 78.1512 246.027 79.1699C246.403 79.5459 247.058 79.0365 246.682 78.6606H246.706Z" fill="#AF815B"/>
</g>
<g style="mix-blend-mode:multiply">
<path d="M249.098 83.0507C250.409 82.5777 251.452 81.1102 252.314 80.0551C253.31 78.8181 254.196 77.4961 254.936 76.1014C256.417 73.3242 257.352 70.3165 257.74 67.1996C257.813 66.6175 256.903 66.6296 256.83 67.1996C256.478 70.0618 255.604 72.8633 254.269 75.4223C253.637 76.6472 252.897 77.8115 252.059 78.9151C251.635 79.4851 251.173 80.0308 250.688 80.5523C250.202 81.0738 249.571 81.9107 248.855 82.1653C248.309 82.3594 248.539 83.2447 249.098 83.0385V83.0507Z" fill="#CCCCCC"/>
</g>
<g style="mix-blend-mode:multiply">
<path d="M249.183 82.9296C252.63 78.5878 254.099 72.9606 253.2 67.4909C253.103 66.9088 252.229 67.1635 252.326 67.7335C253.164 72.8514 251.768 78.224 248.539 82.2868C248.175 82.7356 248.818 83.3905 249.183 82.9296Z" fill="#CCCCCC"/>
</g>
<g style="mix-blend-mode:multiply">
<path d="M241.462 47.1526C244.788 46.34 247.908 48.2199 250.36 50.2816C250.809 50.6575 251.452 50.0148 251.003 49.6388C248.284 47.3588 244.898 45.3941 241.22 46.2794C240.649 46.4128 240.892 47.2981 241.462 47.1526Z" fill="#CCCCCC"/>
</g>
<g style="mix-blend-mode:multiply">
<path d="M241.11 47.2497C243.101 48.1108 244.254 50.0633 245.225 51.8946C245.504 52.4161 246.281 51.9553 246.014 51.4338C244.97 49.4691 243.708 47.371 241.572 46.4614C241.341 46.3644 241.086 46.3886 240.952 46.6191C240.843 46.8131 240.892 47.1406 241.11 47.2376V47.2497Z" fill="#CCCCCC"/>
</g>
<g style="mix-blend-mode:multiply">
<path d="M247.301 42.5685C250.87 42.2046 254.997 41.8044 257.983 44.2421C258.432 44.6059 259.076 43.9753 258.626 43.5993C255.422 40.9797 251.173 41.2587 247.301 41.6589C246.718 41.7195 246.718 42.6291 247.301 42.5685Z" fill="#CCCCCC"/>
</g>
<g style="mix-blend-mode:multiply">
<path d="M247.18 42.4594C248.928 43.5388 251.173 43.8541 252.63 45.3822C253.031 45.8067 253.674 45.1639 253.273 44.7394C251.744 43.1385 249.462 42.799 247.641 41.6832C247.143 41.38 246.682 42.1562 247.18 42.4715V42.4594Z" fill="#CCCCCC"/>
</g>
<g style="mix-blend-mode:multiply">
<path d="M302.872 47.8559C300.347 50.3542 298.271 53.277 296.778 56.503C296.536 57.0245 297.312 57.4975 297.567 56.9639C299.036 53.8106 301.039 50.9485 303.515 48.4987C303.928 48.0863 303.285 47.4435 302.872 47.8559Z" fill="#CCCCCC"/>
</g>
<g style="mix-blend-mode:multiply">
<path d="M302.763 48.608C302.484 49.2872 302.374 50.0027 302.229 50.7183C302.083 51.4338 301.877 52.1736 301.646 52.8891C301.185 54.3202 300.602 55.7149 300.019 57.0975C299.789 57.6311 300.675 57.8737 300.893 57.34C301.476 55.9453 302.059 54.5628 302.52 53.1317C302.751 52.4162 302.945 51.6885 303.103 50.9608C303.26 50.2332 303.37 49.5297 303.637 48.8506C303.855 48.3048 302.981 48.0744 302.763 48.608Z" fill="#CCCCCC"/>
</g>
<g style="mix-blend-mode:multiply">
<path d="M305.336 74.404C301.342 72.1967 300.978 67.1758 300.784 63.1373C300.76 62.5552 299.849 62.5552 299.874 63.1373C300.08 67.5154 300.578 72.8274 304.875 75.1923C305.384 75.4712 305.846 74.6951 305.336 74.404Z" fill="#CCCCCC"/>
</g>
<g style="mix-blend-mode:multiply">
<path d="M305.251 73.9915C304.511 71.954 304.401 69.7589 304.936 67.6486C305.081 67.0786 304.207 66.8361 304.062 67.4061C303.491 69.6497 303.588 72.0389 304.377 74.234C304.571 74.7798 305.457 74.5494 305.251 73.9915Z" fill="#CCCCCC"/>
</g>
<g style="mix-blend-mode:multiply">
<path d="M319.575 45.3456C323.495 46.7039 325.68 50.6697 325.51 54.6961C325.426 56.7093 324.891 59.2562 322.889 60.2021C320.886 61.1481 318.64 60.3234 316.892 59.1955C316.394 58.8802 315.945 59.6685 316.431 59.9838C318.397 61.2572 320.861 62.0698 323.131 61.0874C325.401 60.1051 326.105 57.7402 326.36 55.5208C326.894 50.8152 324.418 46.049 319.817 44.4602C319.259 44.2662 319.028 45.1515 319.575 45.3334V45.3456Z" fill="#CCCCCC"/>
</g>
<g style="mix-blend-mode:multiply">
<path d="M316.516 59.8746C318.336 62.0212 320.024 65.1138 318.494 67.879C317.086 70.45 313.784 71.1656 311.381 69.5405C310.895 69.213 310.434 70.0013 310.92 70.3288C313.687 72.1964 317.511 71.3475 319.198 68.4853C321.068 65.3079 319.283 61.7544 317.147 59.2318C316.77 58.7831 316.127 59.4259 316.503 59.8746H316.516Z" fill="#CCCCCC"/>
</g>
<g style="mix-blend-mode:multiply">
<path d="M286.521 40.9675C287.614 39.5122 288.985 38.2751 290.539 37.3292C292.093 36.3832 293.999 35.4857 295.819 35.4736C297.64 35.4615 299 36.9168 299.133 38.6996C299.267 40.4824 298.101 42.156 296.693 43.1626C296.22 43.5022 296.669 44.2905 297.155 43.9509C298.781 42.7867 300.104 40.9675 300.056 38.8937C300.007 37.0987 298.89 35.2796 297.118 34.7459C295.042 34.1153 292.542 35.1947 290.745 36.177C288.779 37.2443 287.104 38.736 285.756 40.5188C285.404 40.9918 286.193 41.4405 286.545 40.9796L286.521 40.9675Z" fill="#CCCCCC"/>
</g>
<g style="mix-blend-mode:multiply">
<path d="M296.693 44.0843C297.422 43.8902 298.174 44.3632 298.453 45.0424C298.805 45.8792 298.502 46.8494 297.98 47.5407C297.434 48.2684 296.62 48.7656 295.819 49.1658C294.933 49.6145 293.986 49.9056 293.015 50.0754C292.445 50.1724 292.688 51.0577 293.258 50.9486C294.472 50.7303 295.637 50.318 296.718 49.7116C297.677 49.1658 298.623 48.426 299.121 47.4194C299.619 46.4128 299.704 45.1758 299.06 44.2419C298.49 43.4051 297.458 42.9443 296.451 43.1989C295.88 43.3445 296.123 44.2298 296.693 44.0721V44.0843Z" fill="#CCCCCC"/>
</g>
<g style="mix-blend-mode:multiply">
<path d="M281.641 40.179C283.499 43.1018 284.081 46.6916 283.219 50.0389C283.074 50.6089 283.948 50.8515 284.093 50.2814C285.004 46.7037 284.397 42.8471 282.418 39.7181C282.103 39.2209 281.314 39.6818 281.629 40.179H281.641Z" fill="#CCCCCC"/>
</g>
<g style="mix-blend-mode:multiply">
<path d="M281.544 40.0699C281.471 42.4348 280.015 44.4723 278.594 46.2429C278.437 46.437 278.412 46.6917 278.594 46.8857C278.752 47.0434 279.08 47.0798 279.238 46.8857C280.828 44.9089 282.382 42.7016 282.455 40.0699C282.467 39.4878 281.556 39.4878 281.544 40.0699Z" fill="#CCCCCC"/>
</g>
<path d="M242.166 172.421C240.965 162.815 239.302 153.356 237.894 143.799C236.473 134.17 236.109 116.79 224.845 113.225C215.643 110.314 203.966 116.79 199.001 124.431C193.733 132.532 192.726 142.805 194.219 152.349C195.712 161.894 199.499 170.892 203.262 179.794C204.342 182.341 205.411 184.888 206.491 187.447C206.758 188.09 207.074 188.781 207.68 189.145C208.615 189.691 209.805 189.218 210.776 188.732L241.839 173.451L242.166 172.433V172.421Z" fill="#E1A600"/>
<path d="M233.463 110.933C232.091 111.296 230.732 111.648 229.36 112.012C228.948 112.121 228.511 112.242 228.219 112.546C227.964 112.812 227.855 113.164 227.758 113.528C226.483 118.343 228.134 123.655 231.448 127.366C236.243 132.726 243.441 135.77 250.591 135.94C256.017 136.074 267.925 134.824 265.582 126.626C265.266 125.51 264.405 124.419 262.742 123.715L233.463 110.933Z" fill="#CC9305"/>
<path d="M243.077 89.8059C240.176 95.9547 237.262 102.116 234.361 108.264C233.936 109.15 233.512 110.071 233.451 111.054C233.378 112.073 233.718 113.079 234.118 114.025C236.34 119.24 240.88 123.351 246.209 125.28C251.537 127.22 257.558 127.014 262.838 124.964C262.462 120.829 262.972 116.62 264.332 112.691C264.635 111.806 264.987 110.92 265.036 109.987C265.084 108.992 264.793 108.01 264.429 107.076C262.741 102.783 259.67 99.2049 256.648 95.7121C255.009 93.8202 253.334 91.8919 251.149 90.667C248.976 89.4421 243.089 89.8059 243.089 89.8059H243.077Z" fill="#E4B58C"/>
<path d="M211.395 182.013C214.806 188.405 218.812 194.469 223.352 200.108C238.501 218.943 259.294 232.696 281.569 242.119C303.831 251.542 327.635 256.842 351.475 260.868H352.106C352.81 261.123 353.636 261.002 354.243 260.565C352.713 257.909 351.184 255.253 349.654 252.597C349.06 251.566 348.465 250.523 347.688 249.614C344.398 245.733 338.79 244.945 333.704 244.593C330.949 244.399 327.708 244.472 326.081 246.691L325.413 246.946C299.631 224.376 269.066 207.409 245.177 182.85C241.681 179.26 238.27 175.392 236.51 170.698L211.395 182.026V182.013Z" fill="#E4B58C"/>
<path d="M206.382 188.49C213.398 178.485 223.946 170.965 235.745 167.57C238.61 166.745 242.446 166.539 243.805 169.17C244.618 170.747 244.06 172.736 242.931 174.094C241.802 175.453 240.188 176.326 238.622 177.163C230.307 181.589 221.992 186.016 213.677 190.443C212.512 191.061 211.298 191.692 209.975 191.692C206.976 191.68 206.382 188.502 206.382 188.502V188.49Z" fill="#CC9305"/>
<g style="mix-blend-mode:multiply" opacity="0.2">
<path d="M248.746 205.226C242.992 205.323 237.881 208.015 234.519 212.163C243.514 220.75 253.771 227.99 264.732 234.017C266.674 231.022 267.779 227.432 267.718 223.588C267.548 213.279 259.051 205.068 248.746 205.238V205.226Z" fill="#6D432C"/>
</g>
<g style="mix-blend-mode:multiply">
<path d="M244.036 165.653C243.15 155.623 239.01 146.103 232.273 138.62C231.885 138.184 231.242 138.826 231.63 139.263C238.197 146.564 242.263 155.878 243.125 165.653C243.174 166.235 244.084 166.235 244.036 165.653Z" fill="#CCCCCC"/>
</g>
<g style="mix-blend-mode:multiply">
<path d="M244.048 164.647C243.878 158.813 243.939 152.98 244.242 147.158C244.266 146.576 243.356 146.576 243.332 147.158C243.04 152.98 242.967 158.813 243.137 164.647C243.15 165.229 244.06 165.229 244.048 164.647Z" fill="#CCCCCC"/>
</g>
<g style="mix-blend-mode:multiply">
<path d="M233.05 112.243C231.047 112.473 229.129 113.14 227.43 114.232C226.944 114.547 227.394 115.335 227.891 115.02C229.445 114.025 231.205 113.371 233.05 113.152C233.293 113.128 233.511 112.958 233.511 112.691C233.511 112.473 233.305 112.206 233.05 112.231V112.243Z" fill="#CCCCCC"/>
</g>
<g style="mix-blend-mode:multiply">
<path d="M228.316 121.011C230.368 119.18 232.674 117.676 235.175 116.548C235.709 116.305 235.247 115.517 234.713 115.76C232.14 116.924 229.773 118.488 227.673 120.368C227.236 120.756 227.879 121.399 228.316 121.011Z" fill="#CCCCCC"/>
</g>
<g style="mix-blend-mode:multiply">
<path d="M233.439 129.44C235.308 126.832 237.444 124.419 239.787 122.224C240.212 121.824 239.569 121.181 239.144 121.581C236.74 123.825 234.568 126.311 232.65 128.979C232.31 129.452 233.099 129.913 233.439 129.44Z" fill="#CCCCCC"/>
</g>
<g style="mix-blend-mode:multiply">
<path d="M245.286 125.437C244.533 128.518 243.769 131.598 243.016 134.691C242.883 135.261 243.756 135.503 243.89 134.933C244.643 131.853 245.407 128.772 246.16 125.68C246.293 125.11 245.419 124.867 245.286 125.437Z" fill="#CCCCCC"/>
</g>
<g style="mix-blend-mode:multiply">
<path d="M251.853 126.784C252.229 129.803 252.157 132.872 251.598 135.879C251.489 136.449 252.375 136.692 252.472 136.122C253.043 133.042 253.14 129.9 252.751 126.784C252.679 126.214 251.768 126.201 251.841 126.784H251.853Z" fill="#CCCCCC"/>
</g>
<g style="mix-blend-mode:multiply">
<path d="M258.942 126.65C260.35 128.87 260.811 131.598 260.204 134.157C260.071 134.727 260.945 134.97 261.078 134.4C261.746 131.61 261.26 128.615 259.731 126.189C259.415 125.692 258.626 126.153 258.942 126.65Z" fill="#CCCCCC"/>
</g>
<g style="mix-blend-mode:multiply">
<path d="M262.596 125.583C263.834 127.002 264.417 128.906 264.247 130.786C264.198 131.368 265.109 131.368 265.157 130.786C265.351 128.675 264.635 126.541 263.239 124.94C262.851 124.503 262.207 125.146 262.596 125.583Z" fill="#CCCCCC"/>
</g>
<g style="mix-blend-mode:multiply">
<path d="M244.449 165.532C244.436 163.567 245.395 161.833 246.427 160.232C247.568 158.462 248.782 156.74 249.972 154.993C250.299 154.508 249.51 154.047 249.183 154.532C247.92 156.376 246.634 158.195 245.444 160.087C244.4 161.736 243.526 163.543 243.538 165.532C243.538 166.114 244.449 166.114 244.449 165.532Z" fill="#CCCCCC"/>
</g>
<g style="mix-blend-mode:multiply">
<path d="M243.016 165.011C243.089 165.884 243.162 166.745 243.235 167.618C243.259 167.849 243.429 168.079 243.696 168.079C243.926 168.079 244.169 167.873 244.157 167.618C244.084 166.745 244.011 165.884 243.939 165.011C243.914 164.78 243.744 164.55 243.477 164.55C243.247 164.55 243.004 164.756 243.016 165.011Z" fill="#CCCCCC"/>
</g>
<g style="mix-blend-mode:multiply">
<path d="M207.098 187.702C207.705 189.315 208.943 190.673 210.533 191.352C210.764 191.449 211.019 191.425 211.152 191.195C211.261 191.001 211.213 190.673 210.994 190.576C210.278 190.273 209.683 189.861 209.149 189.303C208.652 188.781 208.227 188.126 207.984 187.459C207.899 187.229 207.68 187.071 207.426 187.144C207.207 187.205 207.025 187.471 207.11 187.702H207.098Z" fill="#CCCCCC"/>
</g>
<g style="mix-blend-mode:multiply">
<path d="M210.193 183.711C211.043 186.088 212.633 188.138 214.745 189.533C215.231 189.86 215.692 189.072 215.206 188.744C213.313 187.483 211.844 185.603 211.079 183.469C210.885 182.923 209.999 183.153 210.205 183.711H210.193Z" fill="#CCCCCC"/>
</g>
<g style="mix-blend-mode:multiply">
<path d="M214.199 179.831C216.056 182.184 217.828 184.597 219.516 187.083C219.843 187.568 220.632 187.108 220.305 186.622C218.569 184.076 216.748 181.601 214.842 179.188C214.478 178.727 213.835 179.382 214.199 179.831Z" fill="#CCCCCC"/>
</g>
<g style="mix-blend-mode:multiply">
<path d="M219.807 175.307C221.798 178.133 223.291 181.274 224.189 184.609C224.347 185.179 225.221 184.937 225.063 184.367C224.141 180.959 222.623 177.733 220.584 174.846C220.244 174.373 219.455 174.822 219.795 175.307H219.807Z" fill="#CCCCCC"/>
</g>
<g style="mix-blend-mode:multiply">
<path d="M225.706 171.705C227.09 175.064 228.001 178.594 228.401 182.208C228.462 182.778 229.372 182.79 229.312 182.208C228.911 178.509 228.001 174.907 226.58 171.463C226.362 170.929 225.476 171.159 225.706 171.705Z" fill="#CCCCCC"/>
</g>
<g style="mix-blend-mode:multiply">
<path d="M231.424 169.073C233.208 172.032 233.924 175.501 233.487 178.921C233.414 179.503 234.325 179.491 234.398 178.921C234.847 175.355 234.07 171.693 232.213 168.624C231.909 168.127 231.12 168.576 231.424 169.085V169.073Z" fill="#CCCCCC"/>
</g>
<g style="mix-blend-mode:multiply">
<path d="M235.842 167.812C237.214 170.905 237.711 174.325 237.323 177.696C237.25 178.278 238.173 178.266 238.233 177.696C238.634 174.167 238.063 170.602 236.631 167.351C236.4 166.818 235.611 167.279 235.842 167.812Z" fill="#CCCCCC"/>
</g>
<g style="mix-blend-mode:multiply">
<path d="M240.273 167.691C241.475 169.958 241.996 172.53 241.814 175.089C241.778 175.671 242.688 175.671 242.725 175.089C242.919 172.372 242.336 169.643 241.062 167.23C240.783 166.708 240.006 167.169 240.273 167.691Z" fill="#CCCCCC"/>
</g>
<g style="mix-blend-mode:multiply">
<path d="M277.794 176.702C278.352 171.62 278.667 166.514 278.728 161.409C278.789 156.824 279.104 151.791 277.514 147.401C277.32 146.855 276.434 147.086 276.64 147.643C278.255 152.106 277.891 157.297 277.806 161.966C277.721 166.89 277.405 171.802 276.871 176.69C276.81 177.272 277.721 177.272 277.781 176.69L277.794 176.702Z" fill="#CCCCCC"/>
</g>
<g style="mix-blend-mode:multiply">
<path d="M277.453 176.326C280.063 172.19 280.694 167.266 281.277 162.5C281.35 161.918 280.44 161.93 280.367 162.5C279.808 167.096 279.189 171.863 276.664 175.865C276.349 176.362 277.138 176.823 277.453 176.326Z" fill="#CCCCCC"/>
</g>
<g style="mix-blend-mode:multiply">
<path d="M277.963 177.49C278.036 180.34 278.692 183.117 279.857 185.712C280.1 186.246 280.877 185.785 280.646 185.252C279.541 182.814 278.946 180.158 278.874 177.49C278.862 176.908 277.951 176.908 277.963 177.49Z" fill="#CCCCCC"/>
</g>
<g style="mix-blend-mode:multiply">
<path d="M279.954 177.029C280.634 179.151 281.301 181.286 281.981 183.408C282.163 183.966 283.037 183.724 282.855 183.166C282.175 181.043 281.508 178.909 280.828 176.787C280.646 176.229 279.772 176.471 279.954 177.029Z" fill="#CCCCCC"/>
</g>
<g style="mix-blend-mode:multiply">
<path d="M283.244 177.49C283.45 179.103 284.02 180.656 284.943 182.002C285.089 182.208 285.344 182.293 285.562 182.159C285.756 182.038 285.866 181.735 285.72 181.541C284.882 180.34 284.324 178.945 284.142 177.49C284.105 177.248 283.96 177.029 283.681 177.029C283.462 177.029 283.195 177.235 283.219 177.49H283.244Z" fill="#CCCCCC"/>
</g>
</g>
<defs>
<clipPath id="clip0_284_452">
<rect width="506" height="514" fill="white"/>
</clipPath>
</defs>
</svg>
