<svg width="193" height="191" viewBox="0 0 193 191" fill="none" xmlns="http://www.w3.org/2000/svg">
<path fill-rule="evenodd" clip-rule="evenodd" d="M16.0835 95.4998C16.0835 51.5472 51.7142 15.9165 95.6668 15.9165H97.3335C141.286 15.9165 176.917 51.5472 176.917 95.4998C176.917 120.748 165.159 143.25 146.821 157.829C143.417 148.085 137.193 139.519 128.897 133.219C119.597 126.156 108.209 122.333 96.5002 122.333C84.7912 122.333 73.4035 126.156 64.1036 133.219C55.807 139.519 49.5838 148.085 46.1791 157.829C27.8408 143.25 16.0835 120.748 16.0835 95.4998ZM122.849 141.183C130.336 146.868 135.727 154.811 138.215 163.794C126.266 170.962 112.281 175.083 97.3335 175.083H95.6668C80.7191 175.083 66.7339 170.962 54.7854 163.794C57.2735 154.811 62.6647 146.868 70.1513 141.183C77.7045 135.447 86.9662 132.333 96.5002 132.333C106.034 132.333 115.296 135.447 122.849 141.183ZM77.3752 82.7136C77.3752 72.3382 85.8885 63.8386 96.5002 63.8386C107.112 63.8386 115.625 72.3382 115.625 82.7136C115.625 93.089 107.112 101.589 96.5002 101.589C85.8885 101.589 77.3752 93.089 77.3752 82.7136ZM96.5002 53.8386C80.4641 53.8386 67.3752 66.7174 67.3752 82.7136C67.3752 98.7097 80.4641 111.589 96.5002 111.589C112.536 111.589 125.625 98.7097 125.625 82.7136C125.625 66.7174 112.536 53.8386 96.5002 53.8386Z" fill="white"/>
</svg>
